<?xml version="1.0" encoding="UTF-8" standalone="no"?>
<!DOCTYPE svg PUBLIC "-//W3C//DTD SVG 1.1//EN" "http://www.w3.org/Graphics/SVG/1.1/DTD/svg11.dtd">
<svg width="100%" height="100%" viewBox="0 0 667 666" version="1.1" xmlns="http://www.w3.org/2000/svg" xmlns:xlink="http://www.w3.org/1999/xlink" xml:space="preserve" xmlns:serif="http://www.serif.com/" style="fill-rule:evenodd;clip-rule:evenodd;stroke-linejoin:round;stroke-miterlimit:2;">
    <g transform="matrix(1,0,0,1,-2413,0)">
        <g id="Logo_mark" transform="matrix(0.6164,0,0,0.6164,2413.46,0)">
            <rect x="0" y="0" width="1080" height="1080" style="fill:none;"/>
            <g transform="matrix(1.62232,0,0,1.62232,-2336.7,-208.54)">
                <path d="M1755.18,216.832C1771.11,216.933 1784.01,229.897 1784.01,245.85C1784.01,261.802 1771.11,274.766 1755.18,274.867L1755,274.867C1751.34,274.867 1747.84,274.19 1744.62,272.954L1678.49,339.081C1679.07,340.263 1679.56,341.489 1679.98,342.753L1750.77,342.753C1754.56,331.138 1765.49,322.735 1778.36,322.735C1791.6,322.735 1802.78,331.624 1806.26,343.753L1840.9,343.753C1852.04,343.753 1862.72,339.328 1870.59,331.452L1894.46,307.587C1892.21,303.466 1890.93,298.74 1890.93,293.718C1890.93,277.702 1903.93,264.7 1919.95,264.7L1920.14,264.701C1936.07,264.801 1948.97,277.765 1948.97,293.718C1948.97,309.671 1936.07,322.634 1920.14,322.735L1919.95,322.735C1914.77,322.735 1909.9,321.374 1905.68,318.988L1881.91,342.765C1871.03,353.642 1856.28,359.753 1840.9,359.753L1806.26,359.753C1805.94,360.857 1805.56,361.934 1805.12,362.98L1863.58,421.433C1866.86,420.14 1870.44,419.429 1874.18,419.429L1874.37,419.43C1890.3,419.531 1903.2,432.494 1903.2,448.447C1903.2,461.293 1894.84,472.201 1883.26,476.015L1883.26,515.735L1900.94,515.735C1912.08,515.735 1922.76,511.31 1930.64,503.433L2012.99,421.077C2010.38,416.721 2008.88,411.625 2008.88,406.182C2008.88,390.166 2021.88,377.164 2037.9,377.164L2038.08,377.165C2054.01,377.265 2066.91,390.229 2066.91,406.182C2066.91,422.135 2054.01,435.098 2038.08,435.199L2037.9,435.199C2033.14,435.199 2028.65,434.052 2024.68,432.018L1941.95,514.747C1931.07,525.624 1916.32,531.735 1900.94,531.735L1883.26,531.735L1883.26,546.586C1894.87,550.381 1903.26,561.304 1903.26,574.172C1903.26,590.188 1890.26,603.19 1874.24,603.19C1870.14,603.19 1866.23,602.336 1862.69,600.796L1805.33,658.158C1806.15,660.844 1806.59,663.695 1806.59,666.648C1806.59,682.663 1793.59,695.666 1777.57,695.666C1765.81,695.666 1755.68,688.655 1751.12,678.589L1632.94,678.589L1632.53,678.711C1619.57,682.182 1561.25,697.81 1532.07,705.628C1531.21,705.859 1530.33,705.971 1529.46,705.969C1526.91,705.963 1524.41,704.977 1522.53,703.157L1522.41,703.04C1520.31,700.933 1519.27,698.022 1519.52,695.111C1519.57,694.532 1519.67,693.953 1519.82,693.38C1527.64,664.203 1543.27,605.878 1546.74,592.924L1546.99,592.127L1547.17,591.669L1547.42,591.106C1547.42,591.106 1547.42,477.196 1547.42,477.196C1537.07,472.763 1529.81,462.476 1529.81,450.506C1529.81,434.491 1542.81,421.488 1558.82,421.488C1561.35,421.488 1563.79,421.811 1566.12,422.417L1625.6,362.937C1624.16,359.496 1623.37,355.717 1623.37,351.753C1623.37,335.738 1636.37,322.735 1652.38,322.735C1656.93,322.735 1661.23,323.781 1665.06,325.646L1730.04,260.66C1727.46,256.323 1725.98,251.258 1725.98,245.85C1725.98,229.834 1738.98,216.832 1755,216.832L1755.18,216.832ZM1790.59,666.648C1790.59,673.833 1784.76,679.666 1777.57,679.666C1770.39,679.666 1764.56,673.833 1764.56,666.648C1764.56,659.463 1770.39,653.63 1777.57,653.63C1784.76,653.63 1790.59,659.463 1790.59,666.648ZM1775.59,539.333C1772.71,534.827 1771.04,529.475 1771.04,523.735C1771.04,507.719 1784.04,494.717 1800.06,494.717C1804.29,494.717 1808.31,495.625 1811.94,497.257L1848.08,461.12C1846.21,457.289 1845.17,452.989 1845.17,448.447C1845.17,443.122 1846.61,438.13 1849.11,433.839L1792.41,377.141C1788.25,379.454 1783.46,380.771 1778.36,380.771C1774.84,380.771 1771.47,380.143 1768.34,378.992L1707.88,439.459C1697,450.337 1682.25,456.447 1666.86,456.447L1587.23,456.447C1585,467.139 1576.88,475.681 1566.42,478.516L1566.42,559.515C1566.42,562.996 1567.01,566.416 1568.13,569.645L1651.22,486.55C1651.52,486.253 1651.83,485.977 1652.16,485.724C1654.9,483.589 1658.6,483.018 1661.9,484.294C1665.59,485.722 1668.09,489.193 1668.28,493.148C1669.09,510.238 1670.16,532.812 1670.75,545.189C1670.78,545.94 1670.9,546.67 1671.09,547.368C1671.45,548.657 1672.05,549.842 1672.85,550.866L1673.03,551.083C1673.26,551.371 1673.52,551.645 1673.79,551.905L1674.26,552.33C1674.44,552.489 1674.63,552.641 1674.83,552.786C1676.37,553.911 1678.24,554.608 1680.26,554.704C1692.64,555.291 1715.21,556.361 1732.31,557.171C1736.26,557.359 1739.73,559.861 1741.16,563.553C1741.22,563.718 1741.28,563.884 1741.34,564.05C1741.55,564.711 1741.7,565.384 1741.77,566.06C1742.1,569.033 1741.08,572.053 1738.9,574.231L1655.55,657.589C1659.01,658.899 1662.72,659.589 1666.5,659.589L1749.42,659.589C1751.87,649.81 1759.29,641.991 1768.83,638.974L1768.83,566.517C1768.83,556.952 1771.19,547.631 1775.59,539.333ZM1784.83,638.545C1788.12,639.395 1791.2,640.811 1793.93,642.683L1848.69,587.926C1846.48,583.831 1845.23,579.147 1845.23,574.172C1845.23,561.665 1853.16,550.994 1864.26,546.92L1864.26,531.735L1827.96,531.735C1824.48,543.864 1813.3,552.752 1800.06,552.752C1795.81,552.752 1791.77,551.837 1788.13,550.191C1785.97,555.309 1784.83,560.854 1784.83,566.517L1784.83,638.545ZM1887.26,574.172C1887.26,581.357 1881.43,587.19 1874.24,587.19C1867.06,587.19 1861.23,581.357 1861.23,574.172C1861.23,566.988 1867.06,561.155 1874.24,561.155C1881.43,561.155 1887.26,566.988 1887.26,574.172ZM1813.08,523.735C1813.08,530.919 1807.24,536.752 1800.06,536.752C1792.87,536.752 1787.04,530.919 1787.04,523.735C1787.04,516.55 1792.87,510.717 1800.06,510.717C1807.24,510.717 1813.08,516.55 1813.08,523.735ZM1861.51,474.555L1825.78,510.292C1826.68,512.012 1827.41,513.834 1827.96,515.735L1864.26,515.735L1864.26,475.72C1863.32,475.378 1862.4,474.988 1861.51,474.555ZM1571.84,450.506C1571.84,457.691 1566.01,463.524 1558.82,463.524C1551.64,463.524 1545.81,457.691 1545.81,450.506C1545.81,443.321 1551.64,437.488 1558.82,437.488C1566.01,437.488 1571.84,443.321 1571.84,450.506ZM1751.11,361.753L1679.63,361.753C1675.55,372.848 1664.89,380.771 1652.38,380.771C1647.27,380.771 1642.46,379.445 1638.29,377.12L1582.15,433.258C1583.77,435.44 1585.09,437.857 1586.05,440.447L1666.86,440.447C1678,440.447 1688.68,436.022 1696.56,428.146L1755.32,369.387C1753.56,367.089 1752.13,364.519 1751.11,361.753ZM1778.36,338.735C1785.55,338.735 1791.38,344.568 1791.38,351.753C1791.38,358.938 1785.55,364.771 1778.36,364.771C1771.17,364.771 1765.34,358.938 1765.34,351.753C1765.34,344.568 1771.17,338.735 1778.36,338.735ZM1652.38,338.735C1659.57,338.735 1665.4,344.568 1665.4,351.753C1665.4,358.938 1659.57,364.771 1652.38,364.771C1645.2,364.771 1639.37,358.938 1639.37,351.753C1639.37,344.568 1645.2,338.735 1652.38,338.735Z" style="fill:rgb(176,37,37);"/>
            </g>
        </g>
    </g>
</svg>
