<svg width="256" height="257" viewBox="0 0 256 257" fill="none" xmlns="http://www.w3.org/2000/svg">
<path d="M22.5636 147.487L11.7418 128.743L71.7471 24.811H191.737L230.097 91.2527H195.079L174.228 55.1373H167.544L188.395 91.2527H181.711L160.86 55.1373H75.8817L22.5636 147.487Z" fill="#C7F000"/>
<path fill-rule="evenodd" clip-rule="evenodd" d="M54.2277 202.331L71.7366 232.657H191.737L251.737 128.734L240.915 109.99L213.863 156.845H207.176L223.405 128.735L216.72 128.735L216.719 128.734L216.718 128.735H216.72L200.489 156.845H147.967L131.739 128.739L46.75 128.742L4.26331 202.331H54.2277ZM142.555 166.216L126.326 138.106H91.311L96.7201 147.475H114.229L119.639 156.845H102.13H49.6102L75.8713 202.331H174.228L195.079 166.216H142.555Z" fill="#C7F000"/>
</svg>
