<svg width="256" height="256" viewBox="0 0 256 256" fill="none" xmlns="http://www.w3.org/2000/svg">
<path d="M30.9459 177.19C31.0336 177.743 31.0039 178.309 30.8588 178.851L15.7442 235.259C14.9473 238.233 17.6689 240.955 20.6432 240.158L76.8588 225.095C77.4003 224.95 77.9662 224.92 78.5198 225.008L183.24 241.594C184.952 241.865 186.643 241.003 187.43 239.459L253.105 110.566C253.891 109.022 253.594 107.147 252.369 105.921L189.91 43.4625C188.348 41.9004 185.815 41.9004 184.253 43.4625L151.019 76.6965C149.457 78.2586 149.457 80.7912 151.019 82.3533L173.647 104.981C175.209 106.543 177.741 106.543 179.304 104.981L184.253 100.031C185.815 98.4689 188.348 98.4689 189.91 100.031L203.535 113.656C204.76 114.881 205.057 116.756 204.271 118.3L164.984 195.406C164.197 196.95 162.505 197.812 160.794 197.54L131.374 192.881C129.431 192.573 128 190.898 128 188.93L128 156.728C128 154.761 126.569 153.086 124.626 152.778L109.019 150.306C107.307 150.035 105.965 148.692 105.694 146.981L103.222 131.374C102.914 129.431 101.239 128 99.2714 128H67.0699C65.1024 128 63.427 126.569 63.1192 124.626L58.4596 95.2062C58.1885 93.4946 59.0503 91.8031 60.5944 91.0164L138.473 51.3352C139.614 50.7539 140.408 49.6615 140.608 48.3969L146.795 9.3297C147.307 6.10166 143.941 3.65616 141.029 5.13993L16.5406 68.5699C14.9965 69.3566 14.1347 71.0481 14.4058 72.7596L30.9459 177.19Z" fill="#7733AA"/>
<path d="M172.548 137.192C170.595 139.145 167.429 139.145 165.477 137.192C163.524 135.24 163.524 132.074 165.477 130.121C167.429 128.169 170.595 128.169 172.548 130.121C174.5 132.074 174.5 135.24 172.548 137.192Z" fill="#7733AA"/>
<path d="M158.406 151.335C156.453 153.287 153.287 153.287 151.334 151.335C149.382 149.382 149.382 146.216 151.334 144.263C153.287 142.311 156.453 142.311 158.406 144.263C160.358 146.216 160.358 149.382 158.406 151.335Z" fill="#7733AA"/>
<path d="M158.406 137.192C156.453 139.145 153.287 139.145 151.334 137.192C149.382 135.24 149.382 132.074 151.334 130.121C153.287 128.169 156.453 128.169 158.406 130.121C160.358 132.074 160.358 135.24 158.406 137.192Z" fill="#7733AA"/>
<path d="M172.548 151.335C170.595 153.287 167.429 153.287 165.477 151.335C163.524 149.382 163.524 146.216 165.477 144.263C167.429 142.311 170.595 142.311 172.548 144.263C174.5 146.216 174.5 149.382 172.548 151.335Z" fill="#7733AA"/>
<path d="M104.665 90.5234C102.713 88.5707 102.713 85.4049 104.665 83.4523C106.618 81.4997 109.784 81.4997 111.736 83.4523L115.272 86.9878L118.808 83.4523C120.76 81.4997 123.926 81.4997 125.879 83.4523C127.831 85.4049 127.831 88.5707 125.879 90.5234L122.343 94.0589L125.879 97.5944C127.831 99.547 127.831 102.713 125.879 104.665C123.926 106.618 120.76 106.618 118.808 104.665L115.272 101.13L111.736 104.665C109.784 106.618 106.618 106.618 104.665 104.665C102.713 102.713 102.713 99.547 104.665 97.5944L108.201 94.0589L104.665 90.5234Z" fill="#7733AA"/>
</svg>
