<?xml version="1.0" encoding="UTF-8" standalone="no"?>
<!DOCTYPE svg PUBLIC "-//W3C//DTD SVG 1.1//EN" "http://www.w3.org/Graphics/SVG/1.1/DTD/svg11.dtd">
<svg width="100%" height="100%" viewBox="0 0 1496 1496" version="1.1" xmlns="http://www.w3.org/2000/svg" xmlns:xlink="http://www.w3.org/1999/xlink" xml:space="preserve" xmlns:serif="http://www.serif.com/" style="fill-rule:evenodd;clip-rule:evenodd;stroke-linejoin:round;stroke-miterlimit:2;">
    <rect id="ページ1" x="0" y="0" width="1495.08" height="1495.08" style="fill:none;"/>
    <g id="ページ11" serif:id="ページ1">
        <g id="レイヤー-1" serif:id="レイヤー 1">
            <g transform="matrix(1,0,0,1,689.815,352.372)">
                <path d="M0,66.317C18.312,66.317 33.158,51.471 33.158,33.159C33.158,14.846 18.312,0 0,0C-18.313,0 -33.159,14.846 -33.159,33.159C-33.159,51.471 -18.313,66.317 0,66.317" style="fill:rgb(244,127,173);fill-rule:nonzero;"/>
            </g>
            <g transform="matrix(0,1,1,0,1071.72,725.857)">
                <path d="M21.681,-21.681C33.655,-21.681 43.362,-11.974 43.362,0C43.362,11.974 33.655,21.681 21.681,21.681C9.707,21.681 0,11.974 0,0C0,-11.974 9.707,-21.681 21.681,-21.681" style="fill:rgb(244,127,173);fill-rule:nonzero;"/>
            </g>
            <g transform="matrix(0,-1,-1,0,986.335,626.846)">
                <path d="M-33.158,-33.159C-14.846,-33.159 -0,-18.313 -0,0C-0,18.313 -14.846,33.158 -33.158,33.158C-51.471,33.158 -66.317,18.313 -66.317,0C-66.317,-18.313 -51.471,-33.159 -33.158,-33.159" style="fill:rgb(244,127,173);fill-rule:nonzero;"/>
            </g>
            <g transform="matrix(1,0,0,1,891.059,338.497)">
                <path d="M0,12.736C74.6,-2.204 115.741,34.841 152.636,3.327C166.548,-8.556 178.452,-28.989 172.5,-40.582C170.27,-44.924 160.421,-57.989 50.182,-37.446C-46.082,-19.508 -117.357,-5.463 -126.5,33.645C-127.057,36.024 -130.097,49.028 -123.363,55.599C-107.867,70.725 -66.87,26.128 0,12.736" style="fill:rgb(244,127,173);fill-rule:nonzero;"/>
            </g>
            <g transform="matrix(1,0,0,1,1145.55,804.44)">
                <path d="M0,-223.763C-13.796,-225.83 -30.291,-214.083 -34.825,-200.546C-41.558,-180.448 -17.215,-170.452 -10.447,-139.022C-0.436,-92.52 -43.445,-66.678 -27.86,-25.26C-27.27,-23.691 -17.687,1.012 -3.482,1.439C17.359,2.067 39.686,-49.819 44.111,-94.91C49.628,-151.118 29.543,-219.336 0,-223.763" style="fill:rgb(244,127,173);fill-rule:nonzero;"/>
            </g>
            <g transform="matrix(1,0,0,1,562.323,677.274)">
                <path d="M0,-120.148C-5.909,-114.667 -12.242,-110.097 -18.433,-105.656C-24.212,-101.502 -29.655,-97.599 -34.212,-93.277L-38.701,-89.04C-50.945,-77.448 -62.52,-66.493 -73.291,-54.45C-75.703,-51.753 -78.081,-49.023 -80.443,-46.292C-87.311,-38.286 -93.943,-30.078 -100.226,-21.602C-103.14,-17.682 -105.954,-13.712 -108.701,-9.676C-110.008,-7.732 -111.297,-5.773 -112.57,-3.796C-112.588,-3.796 -112.588,-3.779 -112.604,-3.763C-113.743,-2.037 -111.934,0.106 -110.058,-0.764C-109.02,-1.25 -107.98,-1.686 -106.893,-2.054C-103.743,-3.076 -100.493,-3.796 -97.193,-4.215C-90.711,-5.002 -84.078,-4.567 -77.779,-2.841C-62.721,1.279 -46.373,-4.114 -37.695,-17.314C-19.102,-45.584 3.534,-70.631 28.715,-89.17C30.401,-90.412 30.637,-92.834 29.193,-94.351L4.832,-119.972C3.537,-121.335 1.378,-121.427 0,-120.148" style="fill:rgb(244,127,173);fill-rule:nonzero;"/>
            </g>
            <g transform="matrix(1,0,0,1,581.395,579.826)">
                <path d="M0,-37.588C-2.58,-39.163 -5.931,-38.241 -7.639,-35.729C-8.426,-34.556 -9.28,-33.417 -10.151,-32.295C-12.044,-29.866 -10.168,-27.772 -8.477,-25.997C-7.823,-25.31 -7.17,-24.623 -6.533,-23.92C1.139,-15.829 8.693,-7.554 16.516,0.419C16.532,0.453 16.565,0.486 16.6,0.519C16.733,0.67 16.884,0.821 17.035,0.972C17.486,1.357 18.057,1.575 18.676,1.575C18.811,1.575 18.944,1.558 19.078,1.541C19.195,1.524 19.312,1.508 19.43,1.457C19.664,1.391 19.883,1.29 20.1,1.156C20.234,1.038 20.401,0.938 20.535,0.804C23.383,-1.842 24.891,-6.13 24.689,-9.9C24.354,-16.951 18.441,-20.988 13.685,-25.36C9.815,-28.911 5.945,-32.479 2.076,-36.03C1.423,-36.633 0.72,-37.152 0,-37.588" style="fill:rgb(244,127,173);fill-rule:nonzero;"/>
            </g>
            <g transform="matrix(1,0,0,1,591.533,478.923)">
                <path d="M0,60.71L16.725,77.851C19.812,80.939 24.781,80.434 27.796,76.841C33.991,69.627 39.91,64.281 50.659,64.442C60.714,64.583 69.942,57.706 72.622,48.059C79.306,24.838 94.556,-2.282 102.842,-15.232C103.224,-15.813 102.339,-16.485 101.757,-16.057L48.832,28.918C48.085,29.647 47.533,31.098 47.592,32.142C47.673,33.606 47.148,35.108 46.011,36.24C43.927,38.33 40.659,38.315 38.626,36.26C38.317,35.943 38.011,35.566 37.776,35.144C36.885,33.585 36.851,31.573 37.701,29.993C38.823,27.939 40.876,27.008 42.861,27.22C44.077,27.33 45.269,26.783 46.153,25.92L98.896,-18.92C99.478,-19.349 98.86,-20.229 98.137,-20.003C82.313,-14.801 51.241,-4.039 26.207,0.284C16.013,2.232 9.356,11.797 10.208,22.887C11.095,34.693 6.304,41.213 -0.093,48.24C-3.207,51.741 -3.173,57.381 0,60.71" style="fill:rgb(244,127,173);fill-rule:nonzero;"/>
            </g>
            <g transform="matrix(1,0,0,1,891.445,861.22)">
                <path d="M0,185.406C-0.714,190.273 -0.073,198.97 3.464,205.997C4.627,208.306 6.019,210.384 8.325,211.101C11.343,212.039 14.527,210.502 17.255,208.906C23.472,205.27 29.362,201.08 34.846,196.412C42.188,190.163 48.034,183.007 54.191,175.669C60.302,168.387 66.818,161.331 72.975,154.039C80.782,144.793 88.977,135.368 94.8,124.689C123.575,71.923 124.649,22.16 123.404,-1.566C123.242,-4.656 121.629,-7.48 119.066,-9.215C113.208,-13.18 107.349,-17.146 101.49,-21.113C93.336,-26.633 86.069,-19.012 86.196,-10.985C86.364,-0.382 87.726,9.849 86.771,20.516C86.19,27.018 85.583,32.192 83.226,42.486C77.009,69.623 69.928,100.539 48.86,127.559C29.249,152.711 2.552,168.031 0,185.406" style="fill:rgb(244,127,173);fill-rule:nonzero;"/>
            </g>
            <g transform="matrix(1,0,0,1,1024.43,736.992)">
                <path d="M0,100.553C5.746,90.418 12.43,71.395 7.998,47.449C2.817,18.076 -11.884,2.307 -20.527,-4.436C-22.081,-5.65 -24.217,-2.517 -23.285,-0.398C-17.387,12.423 -17.589,22.144 -19.141,28.686C-23.128,43.774 -36.615,48.468 -41.135,63.361C-44.412,73.171 -41.297,82.417 -37.797,88.962C-37.015,90.398 -35.777,91.569 -34.256,92.375L-13.485,103.559C-8.657,106.203 -2.67,104.941 0,100.553" style="fill:rgb(244,127,173);fill-rule:nonzero;"/>
            </g>
            <g transform="matrix(1,0,0,1,440.16,858.477)">
                <path d="M0,-18.62C0.55,-12.34 1.341,-6.13 2.351,0C1.341,-6.14 0.561,-12.35 0,-18.62" style="fill:rgb(244,127,173);fill-rule:nonzero;"/>
            </g>
            <g transform="matrix(1,0,0,1,446.541,875.415)">
                <path d="M0,2.778C-0.227,1.854 -0.45,0.928 -0.667,0C-0.569,0.413 -0.479,0.83 -0.381,1.242C-0.257,1.756 -0.126,2.266 0,2.778" style="fill:rgb(244,127,173);fill-rule:nonzero;"/>
            </g>
            <g transform="matrix(1,0,0,1,449.723,892.358)">
                <path d="M0,-2.409C0.237,-1.607 0.462,-0.799 0.707,0L0.717,-0.01C0.472,-0.807 0.237,-1.609 0,-2.409" style="fill:rgb(244,127,173);fill-rule:nonzero;"/>
            </g>
            <g transform="matrix(1,0,0,1,612.901,749.293)">
                <path d="M0,72.582L7.547,96.014L-32.912,108.133L0,72.582ZM41.577,55.656L11.675,92.518L4.187,69.271L41.577,55.656ZM11.652,22.094L44.283,49.349L4.283,63.916L11.652,22.094ZM50.15,13.06L47.168,45.244L15.697,18.957L50.15,13.06ZM66.596,-27.108L51.189,7.81L18.577,13.392L66.596,-27.108ZM73.803,-31.057L91.189,-7.573L57.668,5.514L73.803,-31.057ZM113.103,-66.349L94.322,-11.743L76.655,-35.606L113.103,-66.349ZM139.851,-65.535L102.1,-18.981L120.008,-71.054L139.851,-65.535ZM199.834,-139.506L143.285,-69.77L123.637,-75.234L199.834,-139.506ZM52.469,42.219L55.287,11.811L87.244,-0.666L52.469,42.219ZM38.174,226.456L4.334,266.571L-3.848,232.941L38.174,226.456ZM26.399,186.295L40.855,220.982L-1.623,227.539L26.399,186.295ZM83.697,172.49L45.121,218.22L30.414,182.929L83.697,172.49ZM44.072,132.539L67.515,140.087L31.951,173.009L44.072,132.539ZM84.445,98.506L70.823,135.899L47.569,128.411L84.445,98.506ZM90.748,95.809L117.996,128.44L76.178,135.807L90.748,95.809ZM127.031,89.944L121.133,124.395L94.854,92.925L127.031,89.944ZM108.258,79.194L140.756,52.841L128.276,84.807L97.863,87.624L108.258,79.194ZM147.662,48.9L171.146,66.287L134.576,82.422L147.662,48.9ZM206.434,26.99L175.692,63.432L151.83,45.765L206.434,26.99ZM205.623,0.243L211.141,20.084L159.082,37.984L205.623,0.243ZM279.607,-59.754L215.32,16.456L209.856,-3.191L279.607,-59.754ZM126.699,121.512L132.281,88.899L167.21,73.488L126.699,121.512ZM86.211,166.903L35.09,176.918L71.793,142.94L86.211,166.903ZM90.533,164.386L76.371,140.85L116.324,133.811L90.533,164.386ZM496.989,73.534C492.649,74.544 488.529,76.294 484.759,78.624C482.239,80.174 479.869,81.984 477.699,84.014C471.18,90.104 466.409,98.124 464.409,106.844C461.85,118.034 463.959,120.664 464.659,145.474C464.739,148.284 464.969,158.494 463.799,172.684C462.979,182.684 461.469,194.674 458.709,207.434C455.259,223.434 448.749,239.044 434.389,247.764C433.639,248.234 432.859,248.674 432.059,249.094C429.35,250.514 425.819,251.594 423.399,249.694C421.229,247.994 421.059,244.664 421.029,243.384C420.639,228.924 448.739,192.144 449.819,158.254C450.219,145.694 446.709,140.034 443.439,136.974C438.139,132.024 428.909,129.634 423.759,133.254C419.319,136.374 419.939,142.534 418.969,156.134C418.27,165.934 416.089,175.594 415.249,185.384C413.579,204.674 396.369,249.964 361.52,291.784C352.529,302.574 341.52,312.004 330.589,320.734C322.379,327.294 226.43,388.684 234.52,356.694C235.759,351.804 238.93,347.634 243.129,344.824C257.229,335.394 266.299,317.144 262.389,300.464C259.439,287.814 248.049,277.234 235.399,275.954L235.369,275.954C233.43,275.764 231.459,275.784 229.479,276.054C220.699,277.251 213.648,282.689 207.495,288.675C198.4,297.522 188.646,303.296 176.899,307.824C175.399,308.404 173.899,308.964 172.379,309.524C166.969,311.504 161.479,313.304 155.899,314.914C154.469,315.324 153.039,315.724 151.6,316.114C150.989,316.294 150.379,316.454 149.759,316.614C149.539,316.664 149.319,316.724 149.1,316.784C147.77,317.134 146.439,317.474 145.109,317.784C144.379,317.974 143.659,318.144 142.93,318.304C141.669,318.604 140.399,318.894 139.129,319.164C138.759,319.244 138.389,319.324 138.029,319.404C137.469,319.524 136.899,319.644 136.339,319.754C135.609,319.904 134.869,320.054 134.139,320.204C133.399,320.354 132.659,320.494 131.919,320.624C131.18,320.774 130.439,320.904 129.699,321.034C128.609,321.234 127.52,321.414 126.43,321.594C125.589,321.734 124.759,321.874 123.919,322.004C121.999,322.294 120.079,322.574 118.149,322.824C117.129,322.974 116.109,323.104 115.079,323.214C114.309,323.314 113.539,323.404 112.77,323.484C111.649,323.614 110.539,323.724 109.419,323.834C109.299,323.844 109.189,323.854 109.089,323.864C107.949,323.974 106.809,324.084 105.659,324.174C104.899,324.244 104.129,324.304 103.359,324.354C103.089,324.374 102.819,324.394 102.549,324.414C102.1,324.454 101.649,324.484 101.199,324.504C100.359,324.564 99.52,324.614 98.679,324.664C96.119,324.804 93.559,324.914 90.989,324.984C89.879,325.014 88.759,325.034 87.649,325.044C86.449,325.064 85.239,325.074 84.029,325.074L83.989,325.074C82.729,325.074 81.479,325.064 80.219,325.044C79.189,325.034 78.159,325.014 77.129,324.984C75.739,324.944 74.35,324.904 72.969,324.834C72.079,324.804 71.189,324.764 70.309,324.714C69.229,324.664 68.159,324.594 67.079,324.524C66.969,324.524 66.859,324.514 66.739,324.504C65.729,324.434 64.719,324.364 63.709,324.284C63.589,324.274 63.459,324.264 63.329,324.254C62.279,324.174 61.229,324.084 60.179,323.984C59.249,323.904 58.319,323.814 57.399,323.724C56.969,323.674 56.529,323.624 56.1,323.584C55.259,323.494 54.419,323.394 53.579,323.294C48.479,322.704 43.429,321.954 38.429,321.054C37.77,320.944 37.119,320.824 36.459,320.694C35.689,320.564 34.919,320.414 34.149,320.254C33.379,320.114 32.619,319.954 31.85,319.794C29.549,319.314 27.259,318.814 24.989,318.284C22.709,317.744 20.449,317.184 18.199,316.594C17.449,316.404 16.699,316.204 15.949,315.994C14.449,315.594 12.959,315.174 11.479,314.724C10.739,314.514 9.999,314.294 9.259,314.064C5.329,312.874 1.429,311.594 -2.421,310.224C-2.48,310.214 -2.541,310.194 -2.591,310.164C-3.841,309.724 -5.091,309.264 -6.331,308.794C-10.334,307.307 -14.279,305.699 -18.181,304.016C-18.795,303.75 -19.406,303.478 -20.02,303.208L-19.861,303.022C-19.861,303.021 -19.86,303.019 -19.859,303.019L-19.859,303.018L4.977,273.563C4.979,273.561 4.979,273.561 4.98,273.559L124.541,131.825C124.55,131.815 124.558,131.805 124.566,131.795L300.461,-76.722C301.293,-77.707 301.238,-79.164 300.336,-80.084C299.434,-81.003 297.979,-81.088 296.977,-80.275L205.489,-6.086C205.464,-6.066 205.439,-6.046 205.415,-6.025L145.074,42.907C145.029,42.938 144.986,42.971 144.943,43.005L102.59,77.354L88.314,88.929C88.313,88.931 88.313,88.932 88.311,88.934L40.867,127.409C40.865,127.411 40.864,127.412 40.863,127.413L40.836,127.435L-101.279,242.676C-101.683,242.197 -102.082,241.716 -102.48,241.233L12.648,99.254C12.648,99.253 12.65,99.252 12.65,99.251L51.15,51.791C51.18,51.755 51.209,51.718 51.236,51.68L220.361,-156.879C221.174,-157.88 221.09,-159.335 220.17,-160.238C219.248,-161.143 217.793,-161.195 216.807,-160.365L71.637,-37.915C71.584,-37.869 71.531,-37.821 71.482,-37.772L8.328,15.496L-30.193,47.986L-84.492,93.786L-133.473,135.106C-133.474,135.107 -133.475,135.108 -133.475,135.109L-158.148,155.919C-159.698,151.685 -161.141,147.399 -162.471,143.064C-168.463,123.536 -173.128,102.364 -173.14,81.869C-173.147,68.601 -166.305,54.82 -160.67,43.017C-154.201,29.47 -146.225,16.639 -136.871,4.894C-124.201,-11.016 -108.281,-32.246 -119.711,-49.076C-124.251,-55.756 -132.271,-59.186 -140.451,-59.576C-143.111,-59.706 -145.791,-59.506 -148.371,-58.996C-160.801,-56.546 -171.311,-48.096 -180.521,-39.756C-183.441,-37.116 -187.601,-36.116 -191.291,-37.486C-199.471,-40.506 -196.761,-51.406 -192.861,-58.436C-163.251,-111.856 -122.221,-158.926 -73.341,-195.566C-59.851,-205.676 -43.921,-219.906 -48.951,-235.996C-52.9,-248.606 -68.941,-253.966 -81.751,-250.706C-94.571,-247.446 -104.791,-238.056 -114.421,-229.006C-133.171,-211.376 -151.921,-193.756 -170.661,-176.136C-172.751,-174.176 -175.601,-173.136 -178.431,-173.556C-187.171,-174.856 -185.061,-187.636 -180.491,-194.876C-161.701,-224.616 -136.661,-250.316 -107.641,-270.196C-88.051,-283.636 -66.641,-294.406 -44.121,-301.976C-31.65,-306.166 -18.171,-309.886 -6.841,-316.246C0.309,-320.246 6.609,-325.306 11.249,-332.186C20.52,-345.926 20.379,-365.376 10.899,-378.976C1.429,-392.586 -16.761,-399.476 -32.871,-395.546C-43.98,-392.836 -53.421,-385.706 -62.23,-378.406C-95.311,-350.996 -124.23,-318.946 -152.201,-286.326C-201.451,-228.866 -248.871,-167.966 -275.621,-97.176C-277.801,-91.406 -279.831,-85.596 -281.721,-79.746C-300.011,-34.316 -310.071,15.304 -310.071,67.284C-310.071,127.064 -296.761,183.734 -272.941,234.494C-270.586,239.512 -268.117,244.465 -265.561,249.364C-284.209,273.083 -297.119,300.927 -303.104,330.717L-328.209,455.69C-329.956,464.387 -322.285,472.058 -313.588,470.311L-188.615,445.206C-160.146,439.486 -133.455,427.443 -110.442,410.11C-98.666,416.804 -86.516,422.917 -74.021,428.394C-73.951,428.424 -73.881,428.454 -73.801,428.494C-23.721,451.544 32.029,464.404 90.779,464.404C92.049,464.404 93.319,464.394 94.579,464.384C150.749,463.854 204.109,451.574 252.319,429.884C257.219,427.904 262.089,425.854 266.919,423.734C321.759,399.684 373.149,367.084 418.749,328.294C473.199,281.974 508.229,224.874 535.549,159.364C540.169,148.294 544.639,136.984 546.27,125.094C546.35,124.504 546.419,123.934 546.489,123.344C547.739,111.954 546.119,99.994 539.899,90.404C530.989,76.664 512.939,69.834 496.989,73.534" style="fill:rgb(244,127,173);fill-rule:nonzero;"/>
            </g>
            <g transform="matrix(1,0,0,1,614.354,461.533)">
                <path d="M0,145.005C-1.598,144.178 -3.361,143.61 -5.255,143.398C-13.539,142.471 -21.006,148.435 -21.934,156.719C-22.86,165.003 -16.896,172.47 -8.613,173.397C-0.329,174.324 7.139,168.36 8.065,160.077C8.581,155.47 6.961,151.12 4.001,148.003C37.143,105.115 76.857,68.817 122.272,40.013C152.525,20.825 185.026,5.211 219.065,-6.513C221.305,-2.259 225.543,0.847 230.68,1.422C238.914,2.343 246.336,-3.584 247.258,-11.819C248.18,-20.053 242.252,-27.475 234.018,-28.397C225.783,-29.319 218.361,-23.391 217.439,-15.157C217.291,-13.83 217.338,-12.53 217.525,-11.27C183.086,0.584 150.202,16.377 119.595,35.79C73.666,64.921 33.505,101.63 0,145.005" style="fill:rgb(244,127,173);fill-rule:nonzero;"/>
            </g>
            <g transform="matrix(1,0,0,1,678.941,980.65)">
                <path d="M0,-0.57C-0.221,-0.39 -0.44,-0.2 -0.66,-0.01L-0.66,0L0,-0.57Z" style="fill:rgb(244,127,173);fill-rule:nonzero;"/>
            </g>
        </g>
    </g>
</svg>
