<svg width="902" height="901" viewBox="0 0 902 901" fill="none" xmlns="http://www.w3.org/2000/svg">
<path fill-rule="evenodd" clip-rule="evenodd" d="M13.0436 344.181C15.2178 335.191 27.2151 334.367 30.977 342.817L90.8108 477.206C91.2735 478.245 91.5541 479.355 91.6486 480.489C95.4168 525.678 107.688 570.291 128.463 611.73L240.845 499.348C244.485 495.708 250.709 498.286 250.709 503.434L250.709 648.825H396.1C401.248 648.825 403.825 655.049 400.186 658.688L287.389 771.485C422.535 840.126 591.959 817.949 704.955 704.953C741.585 668.323 768.671 625.763 786.214 580.363C787.729 576.442 791.471 573.809 795.674 573.809H869.99C876.628 573.809 881.424 580.158 879.422 586.487C858.353 653.099 821.41 715.777 768.594 768.592C620.164 917.023 393.841 940.086 221.204 837.782L194.721 864.265C193.861 865.125 192.751 865.692 191.55 865.884L11.4398 894.77C7.55462 895.393 4.19665 892.035 4.81976 888.15L33.7054 708.039C33.898 706.838 34.4647 705.729 35.3248 704.869L62.1179 678.076C2.34338 576.298 -14.0147 456.061 13.0436 344.181ZM132.198 132.196C115.987 148.407 101.272 165.547 88.0517 183.444C87.4178 183.965 86.8328 184.582 86.3147 185.299C73.9622 202.394 62.9578 220.16 53.3016 238.452C51.8907 241.124 51.8042 244.296 53.027 247.06L120.987 400.652C120.338 404.337 120 408.129 120 412C120 447.898 149.102 477 185 477C207.787 477 227.836 465.274 239.441 447.527H510.414C514.145 447.527 517.565 449.603 519.286 452.913L580.442 570.487C582.164 573.796 585.584 575.872 589.314 575.872H727.015C732.538 575.872 737.015 571.395 737.015 565.872V516.228C737.015 510.705 741.492 506.228 747.015 506.228H888.932C893.962 506.228 898.221 502.494 898.766 497.494C900.632 480.372 901.517 463.164 901.422 445.96C901.413 444.344 901.012 442.826 900.309 441.492C899.078 378.916 884.873 316.548 857.692 258.768C861.107 250.867 863 242.155 863 233C863 198.059 835.429 169.556 800.856 168.061C790.856 155.679 780.102 143.704 768.594 132.196C729.003 92.6049 683.87 61.9331 635.692 40.1806C624.554 20.3774 603.339 6.99995 579 6.99995C569.885 6.99995 561.209 8.87593 553.336 12.2629C458.44 -9.93804 357.737 -0.993458 267.521 39.0964C259.163 35.185 249.837 33 240 33C205.321 33 176.985 60.1579 175.1 94.3662C160.207 105.912 145.872 118.522 132.198 132.196ZM518.959 96.9467C445.662 82.7971 368.815 91.5637 299.915 123.246C292.748 140.234 278.567 153.539 261 159.533V243H261.005C261.005 244.325 261.531 245.595 262.468 246.532C263.405 247.469 264.675 247.995 266 247.995V248H305.08C305.027 247.007 305 246.007 305 245C305 214.624 329.624 190 360 190C381.373 190 399.899 202.192 409.003 220H529V219.995C530.325 219.995 531.595 219.469 532.532 218.532C533.469 217.595 533.995 216.325 533.995 215H534V118.904C527.584 112.747 522.428 105.286 518.959 96.9467ZM554 132.018V215C554 221.63 551.366 227.989 546.678 232.678C541.989 237.366 535.63 240 529 240H474.495C474.828 241.633 475 243.308 475 245V289.995H475.005C475.005 291.32 475.531 292.59 476.468 293.527C477.405 294.464 478.675 294.99 480 294.99V295H535.313C534.453 291.137 534 287.122 534 283C534 252.624 558.624 228 589 228C608.308 228 625.292 237.949 635.105 253H736.135C734.1 246.699 733 239.978 733 233C733 231.183 733.074 229.383 733.221 227.604C724.532 216.602 715.111 205.991 704.955 195.836C676.822 167.703 645.191 145.2 611.462 128.326C601.91 133.843 590.824 137 579 137C570.141 137 561.696 135.228 554 132.018ZM240 163C237.94 163 235.903 162.904 233.893 162.717C220.637 172.719 207.915 183.758 195.838 195.836C173.418 218.256 154.573 242.897 139.304 269.052L174.19 347.895C177.706 347.306 181.317 347 185 347C188.749 347 192.424 347.318 196 347.927V273C196 266.37 198.634 260.011 203.322 255.322C208.011 250.634 214.37 248 221 248H241.505C241.172 246.366 241 244.692 241 243V162.992C240.667 162.998 240.334 163 240 163ZM774.595 293.659C763.539 289.39 753.942 282.185 746.762 273H643.093C643.689 276.243 644 279.585 644 283C644 300.079 636.215 315.341 624 325.428V384H624.005C624.005 385.325 624.531 386.595 625.468 387.532C626.405 388.469 627.675 388.995 629 388.995V389H728.559C740.478 374.355 758.646 365 779 365C786.755 365 794.193 366.358 801.089 368.85C795.125 343.087 786.293 317.854 774.595 293.659ZM714.294 436.228C714.1 434.178 714 432.101 714 430C714 422.651 715.219 415.588 717.467 409H628V408.98C621.733 408.729 615.775 406.13 611.322 401.678C606.634 396.989 604 390.63 604 384V335.93C599.232 337.278 594.2 338 589 338C570.561 338 554.241 328.926 544.262 315H480V314.995C473.37 314.995 467.011 312.361 462.322 307.673C457.635 302.986 455.001 296.629 455 290V245H454.995C454.995 243.675 454.469 242.405 453.532 241.468C452.595 240.531 451.325 240.005 450 240.005V240H414.776C414.924 241.647 415 243.314 415 245C415 275.376 390.376 300 360 300C337.836 300 318.733 286.889 310.025 268H221V268.005C219.675 268.005 218.405 268.531 217.468 269.468C216.531 270.405 216.005 271.675 216.005 273H216V354.854C225.859 360.214 234.176 368.05 240.116 377.527H552.907C556.637 377.527 560.057 379.603 561.779 382.913L622.935 500.487C624.656 503.796 628.077 505.872 631.807 505.872H661.015C666.538 505.872 671.015 501.395 671.015 495.872V446.228C671.015 440.705 675.492 436.228 681.015 436.228H714.294ZM621 72.4999C621 95.9721 601.972 115 578.5 115C555.028 115 536 95.9721 536 72.4999C536 49.0278 555.028 30 578.5 30C601.972 30 621 49.0278 621 72.4999ZM283 98.4999C283 121.972 263.972 141 240.5 141C217.028 141 198 121.972 198 98.4999C198 75.0278 217.028 56 240.5 56C263.972 56 283 75.0278 283 98.4999ZM624 283C624 302.33 608.33 318 589 318C569.67 318 554 302.33 554 283C554 263.67 569.67 248 589 248C608.33 248 624 263.67 624 283ZM778.5 473C801.972 473 821 453.972 821 430.5C821 407.028 801.972 388 778.5 388C755.028 388 736 407.028 736 430.5C736 453.972 755.028 473 778.5 473ZM840 233.5C840 256.972 820.972 276 797.5 276C774.028 276 755 256.972 755 233.5C755 210.028 774.028 191 797.5 191C820.972 191 840 210.028 840 233.5ZM360 280C379.33 280 395 264.33 395 245C395 225.67 379.33 210 360 210C340.67 210 325 225.67 325 245C325 264.33 340.67 280 360 280ZM185.5 455C208.972 455 228 435.972 228 412.5C228 389.028 208.972 370 185.5 370C162.028 370 143 389.028 143 412.5C143 435.972 162.028 455 185.5 455Z" fill="#20BEFF"/>
</svg>
