<?xml version="1.0" encoding="UTF-8"?>
<!DOCTYPE svg PUBLIC "-//W3C//DTD SVG 1.1//EN" "http://www.w3.org/Graphics/SVG/1.1/DTD/svg11.dtd">
<svg xmlns="http://www.w3.org/2000/svg" version="1.1" width="902px" height="901px" style="shape-rendering:geometricPrecision; text-rendering:geometricPrecision; image-rendering:optimizeQuality; fill-rule:evenodd; clip-rule:evenodd" xmlns:xlink="http://www.w3.org/1999/xlink">
<g><path style="opacity:0.988" fill="#20bdff" d="M 427.5,-0.5 C 442.5,-0.5 457.5,-0.5 472.5,-0.5C 499.376,1.19617 526.043,5.19617 552.5,11.5C 587.339,-0.609107 615.006,8.55756 635.5,39C 700.394,68.9429 755.394,111.61 800.5,167C 833.881,170.718 854.381,188.885 862,221.5C 862.667,228.833 862.667,236.167 862,243.5C 861.345,248.625 859.845,253.458 857.5,258C 884.69,316.589 899.356,378.089 901.5,442.5C 901.5,450.5 901.5,458.5 901.5,466.5C 900.705,477.391 899.539,488.391 898,499.5C 897.226,501.939 895.726,503.773 893.5,505C 843.225,506.32 792.892,506.986 742.5,507C 739.337,508.48 737.504,510.98 737,514.5C 736.667,532.833 736.333,551.167 736,569.5C 735.215,571.286 734.049,572.786 732.5,574C 707.585,575.158 682.585,575.658 657.5,575.5C 632.415,575.658 607.415,575.158 582.5,574C 560.696,534.228 539.53,494.062 519,453.5C 517.749,450.619 515.583,448.786 512.5,448C 421.165,447.167 329.832,447.333 238.5,448.5C 219.674,473.388 195.007,481.888 164.5,474C 139.968,465.14 125.135,447.973 120,422.5C 119.915,413.425 119.248,404.425 118,395.5C 95.8058,345.917 73.8058,296.25 52,246.5C 51.3333,243.833 51.3333,241.167 52,238.5C 82.0696,181.432 122.736,133.098 174,93.5C 177.446,62.7268 193.946,42.8934 223.5,34C 234.167,32 244.833,32 255.5,34C 259.655,34.7175 263.488,36.2175 267,38.5C 318.186,15.6328 371.686,2.63277 427.5,-0.5 Z M 575.5,29.5 C 602.32,31.1538 617.32,45.3205 620.5,72C 617.667,97.5 603.5,111.667 578,114.5C 552.5,111.667 538.333,97.5 535.5,72C 538.122,47.5493 551.455,33.3827 575.5,29.5 Z M 237.5,55.5 C 264.32,57.1538 279.32,71.3205 282.5,98C 279.667,123.5 265.5,137.667 240,140.5C 214.5,137.667 200.333,123.5 197.5,98C 200.122,73.5493 213.455,59.3827 237.5,55.5 Z M 428.5,90.5 C 447.191,90.2021 465.858,90.7021 484.5,92C 496.007,92.8624 507.341,94.6958 518.5,97.5C 521.841,105.511 526.674,112.511 533,118.5C 533.985,151.585 533.652,184.585 532,217.5C 530.933,218.191 529.766,218.691 528.5,219C 488.496,219.833 448.496,219.667 408.5,218.5C 395.184,196.177 375.517,186.677 349.5,190C 327.395,194.771 312.895,207.938 306,229.5C 304.761,235.435 304.261,241.435 304.5,247.5C 291.163,247.667 277.829,247.5 264.5,247C 263.584,246.626 262.75,246.126 262,245.5C 260.857,230.732 260.357,215.898 260.5,201C 260.833,187.167 261.167,173.333 261.5,159.5C 279.161,152.34 292.161,140.173 300.5,123C 341.293,104.347 383.96,93.5136 428.5,90.5 Z M 609.5,128.5 C 657.143,151.617 697.643,183.951 731,225.5C 732.125,234.473 733.292,243.473 734.5,252.5C 701.16,252.833 667.827,252.5 634.5,251.5C 620.682,232.432 602.015,224.599 578.5,228C 554.333,233.5 539.5,248.333 534,272.5C 533.203,279.55 533.37,286.55 534.5,293.5C 515.842,294.666 497.176,294.833 478.5,294C 476.277,293.348 475.11,291.848 475,289.5C 474.5,272.837 474.333,256.17 474.5,239.5C 494.836,239.667 515.169,239.5 535.5,239C 544.667,236.5 550.5,230.667 553,221.5C 553.167,191.828 553.667,162.161 554.5,132.5C 570.101,137.633 585.768,137.8 601.5,133C 604.448,131.763 607.115,130.263 609.5,128.5 Z M 233.5,162.5 C 235.833,162.5 238.167,162.5 240.5,162.5C 240.5,190.833 240.5,219.167 240.5,247.5C 230.42,247.077 220.42,247.577 210.5,249C 204,251.5 199.5,256 197,262.5C 195.525,290.436 195.025,318.436 195.5,346.5C 188.137,346.831 180.803,346.497 173.5,345.5C 161.892,319.951 150.559,294.284 139.5,268.5C 164.085,227.244 195.419,191.911 233.5,162.5 Z M 794.5,190.5 C 821.32,192.154 836.32,206.32 839.5,233C 836.667,258.5 822.5,272.667 797,275.5C 771.5,272.667 757.333,258.5 754.5,233C 757.122,208.549 770.455,194.383 794.5,190.5 Z M 357.5,209.5 C 379.227,211.227 391.561,222.894 394.5,244.5C 391.833,265.167 380.167,276.833 359.5,279.5C 338.833,276.833 327.167,265.167 324.5,244.5C 327.022,224.649 338.022,212.982 357.5,209.5 Z M 414.5,239.5 C 426.505,239.333 438.505,239.5 450.5,240C 451.416,240.374 452.25,240.874 453,241.5C 454.294,259.768 454.961,278.101 455,296.5C 457.5,305.667 463.333,311.5 472.5,314C 496.167,314.333 519.833,314.667 543.5,315C 558.972,334.327 578.972,341.494 603.5,336.5C 603.333,354.503 603.5,372.503 604,390.5C 606.5,399.667 612.333,405.5 621.5,408C 653.167,408.333 684.833,408.667 716.5,409C 713.884,417.599 712.884,426.432 713.5,435.5C 701.162,435.333 688.829,435.5 676.5,436C 674.714,436.785 673.214,437.951 672,439.5C 670.691,458.41 670.025,477.41 670,496.5C 669.484,499.034 668.317,501.2 666.5,503C 653.595,504.628 640.595,504.961 627.5,504C 624.527,502.235 622.36,499.735 621,496.5C 601,457.833 581,419.167 561,380.5C 559.421,378.959 557.587,377.792 555.5,377C 450.167,376.667 344.833,376.333 239.5,376C 233.595,366.928 225.929,359.761 216.5,354.5C 215.333,326.839 215.167,299.173 216,271.5C 216.374,270.584 216.874,269.75 217.5,269C 233.269,267.856 249.102,267.356 265,267.5C 279.833,267.833 294.667,268.167 309.5,268.5C 322.482,292.158 342.482,302.325 369.5,299C 391.605,294.229 406.105,281.062 413,259.5C 414.274,252.897 414.774,246.23 414.5,239.5 Z M 586.5,247.5 C 608.227,249.227 620.561,260.894 623.5,282.5C 620.833,303.167 609.167,314.833 588.5,317.5C 567.833,314.833 556.167,303.167 553.5,282.5C 556.022,262.649 567.022,250.982 586.5,247.5 Z M 643.5,272.5 C 677.502,272.333 711.502,272.5 745.5,273C 753.583,282.088 763.083,289.255 774,294.5C 785.546,317.805 793.879,342.139 799,367.5C 770.852,359.494 747.018,366.327 727.5,388C 693.415,388.986 659.415,388.652 625.5,387C 624.809,385.933 624.309,384.766 624,383.5C 623.333,364.167 623.333,344.833 624,325.5C 639.678,311.306 646.178,293.64 643.5,272.5 Z M 182.5,369.5 C 209.32,371.154 224.32,385.32 227.5,412C 224.667,437.5 210.5,451.667 185,454.5C 159.5,451.667 145.333,437.5 142.5,412C 145.122,387.549 158.455,373.383 182.5,369.5 Z M 775.5,387.5 C 802.32,389.154 817.32,403.32 820.5,430C 817.667,455.5 803.5,469.667 778,472.5C 752.5,469.667 738.333,455.5 735.5,430C 738.122,405.549 751.455,391.383 775.5,387.5 Z"/></g>
<g><path style="opacity:0.994" fill="#20bdff" d="M 467.5,900.5 C 455.833,900.5 444.167,900.5 432.5,900.5C 357.109,896.761 286.609,876.095 221,838.5C 211.542,846.957 202.375,855.79 193.5,865C 134.226,874.944 74.8924,884.611 15.5,894C 12.5,894.667 9.5,894.667 6.5,894C 4.84808,892.53 3.84808,890.697 3.5,888.5C 13.4411,827.853 23.2744,767.187 33,706.5C 42.1794,696.655 51.3461,686.821 60.5,677C 24.1015,613.562 3.7682,545.395 -0.5,472.5C -0.5,457.5 -0.5,442.5 -0.5,427.5C 1.36245,399.309 5.52912,371.309 12,343.5C 14.9659,336.897 19.7992,334.731 26.5,337C 27.6667,338.167 28.8333,339.333 30,340.5C 50,385.167 70,429.833 90,474.5C 94.5739,522.133 107.241,567.466 128,610.5C 165.5,573 203,535.5 240.5,498C 244.058,495.846 247.225,496.346 250,499.5C 250.5,548.832 250.667,598.166 250.5,647.5C 299.168,647.333 347.834,647.5 396.5,648C 401.218,649.449 402.718,652.615 401,657.5C 363.167,695.333 325.333,733.167 287.5,771C 387.025,818.57 488.025,821.904 590.5,781C 666.1,747.73 724.266,695.23 765,623.5C 773.266,607.47 781.099,591.304 788.5,575C 790.087,574.138 791.754,573.471 793.5,573C 819.5,572.333 845.5,572.333 871.5,573C 878.751,575.276 881.251,580.11 879,587.5C 837.103,710.396 757.937,800.563 641.5,858C 586.156,883.503 528.156,897.67 467.5,900.5 Z"/></g>
</svg>
