<svg xmlns="http://www.w3.org/2000/svg" viewBox="0 0 399.59 493.64"><defs><style>.cls-1{fill:#ff7b19;}</style></defs><title>sound_team_logo</title><g id="レイヤー_2" data-name="レイヤー 2"><g id="レイヤー_1-2" data-name="レイヤー 1"><path class="cls-1" d="M399.59,267.68a198.88,198.88,0,0,0-4.2-40.66l-39.93,22.25a154.57,154.57,0,0,1-32.92,115.44l-62.16-49.32-5.75,6.39,55.53,56.66q-3.46,3.44-7.15,6.64L249.16,326.7l-6.95,5.06L281.1,401A155.23,155.23,0,0,1,124,402.87l1.16-1.16,41-41-51.95-6.3L108,302.44l-41,41-1.16,1.16a155.27,155.27,0,0,1-5-144.55l72.11,33.3,4.3-7.45L72.37,180.14a156.84,156.84,0,0,1,52.89-48.38l40.83,68.17,7.86-3.5q-11.67-38-23.35-76A155.26,155.26,0,0,1,217.49,113l22.66-40A198.74,198.74,0,0,0,138,79.31Q125.79,39.65,113.6,0A112.15,112.15,0,0,0,60.5,23.65l42.66,71.22a200,200,0,0,0-65.91,60.49L17.6,141.49A85.83,85.83,0,0,0,0,172L21.78,182A198.27,198.27,0,0,0,36.39,378.76L29,439.65l60.89-7.39a198.24,198.24,0,0,0,212.26,6.27l30.93,55.11a119.77,119.77,0,0,0,42-30.48l-42.88-46.49q4.15-3.66,8.09-7.53l32.4,33.05a96.07,96.07,0,0,0,11.87-11.49,94,94,0,0,0,7.94-10.52l-36.25-28.76A197.64,197.64,0,0,0,399.59,267.68Z"/><path class="cls-1" d="M139.08,267.68A61.89,61.89,0,1,0,201,205.8,61.89,61.89,0,0,0,139.08,267.68ZM233.17,272,191.49,296a4.94,4.94,0,0,1-7.4-4.27V243.61a4.93,4.93,0,0,1,7.4-4.26l41.68,24.07A4.92,4.92,0,0,1,233.17,272Z"/><path class="cls-1" d="M188.69,182.52a55.73,55.73,0,0,0-5.59.89,54.48,54.48,0,0,0-5.55,1.48l3.39,9.27,8.41-1.79Z"/><path class="cls-1" d="M159.73,203.61l-21.84-35a55.26,55.26,0,0,0-6,3.81,57.2,57.2,0,0,0-5.63,4.67l26.56,31.59Z"/><path class="cls-1" d="M90.63,168.43a54.25,54.25,0,0,0-5.33,7L141.55,220l5.76-6.39q-25.09-25.64-50.18-51.29A54.09,54.09,0,0,0,90.63,168.43Z"/><path class="cls-1" d="M71.26,233.43l56,14.83,2.66-8.18-54-20.92a49.63,49.63,0,0,0-2.77,6.7A50.57,50.57,0,0,0,71.26,233.43Z"/><path class="cls-1" d="M249.13,375.44a30.85,30.85,0,0,0,5.45-3.17l-18.74-36.84-7.86,3.5,14.84,38.58A30.57,30.57,0,0,0,249.13,375.44Z"/><path class="cls-1" d="M321.07,336.78a45.33,45.33,0,0,0,3.31-7.2L269,302l-4.3,7.44,51.58,34.18A45.05,45.05,0,0,0,321.07,336.78Z"/><path class="cls-1" d="M293,297.29A28,28,0,0,0,294.2,291l-19.55-3.85L272,295.28l18.08,8.39A28.81,28.81,0,0,0,293,297.29Z"/><path class="cls-1" d="M312.2,279.16a42,42,0,0,0,.15-6.23l-35.27-1.57-.9,8.55,34.83,5.8A41.59,41.59,0,0,0,312.2,279.16Z"/></g></g></svg>