<svg xmlns="http://www.w3.org/2000/svg" viewBox="0 0 228.7 260.89"><defs><style>.cls-1{fill:#14a39e;}.cls-2{fill:#fff;}</style></defs><title>SysAd_logo_icon</title><g id="レイヤー_2" data-name="レイヤー 2"><g id="レイヤー_1-2" data-name="レイヤー 1"><path class="cls-1" d="M228.7,196.46v-132l-109.2-63a10.32,10.32,0,0,0-10.31,0L0,64.42v132l109.19,63a10.32,10.32,0,0,0,10.31,0Z"/><path class="cls-2" d="M181.85,139.49l-6.38,3.69V119.6l-10.83,6.13v23.7L92.87,190.87l-16.45-9.5,39.54-22L89,143.83h0V112.64L50.42,135.77V117.34l88.79-51.26,21,12.29,14.4-8.24L122.19,39.44a12,12,0,0,0-12.09,0L42,78.7a12,12,0,0,0-6,10.41v60L17.92,184.83,57.35,187l52.77,30.47a12,12,0,0,0,12,0l68.07-39.3a12,12,0,0,0,6-10.42V107.61l-14.39,8.19Z"/></g></g></svg>