<svg width="2766" height="600" viewBox="0 0 2766 600" fill="none" xmlns="http://www.w3.org/2000/svg">
<path fill-rule="evenodd" clip-rule="evenodd" d="M495.538 0C517.965 23.4422 525.467 48.5882 502.507 76.1509C515.583 86.6031 527.514 98.2557 538.102 110.949C533.177 87.9744 543.857 66.6576 566.148 48.1903C583.265 79.3645 584.375 108.279 553.496 131.559C562.667 145.335 570.386 160.075 576.456 175.618C582.099 155.462 598.701 139.864 623.479 128.875C631.801 165.986 624.663 196.335 587.322 212.237C590.489 227.495 592.148 243.322 592.148 259.596C592.148 262.57 592.104 265.517 592.016 268.437C606.717 250.785 630.278 241.935 660 240.863C652.57 282.561 632.202 310.989 587.172 312.315C583.327 331.871 577.355 349.953 569.603 366.562C594.988 352.591 625.812 354.549 659.259 369.408C629.684 408.635 593.696 427.491 546.394 405.454C543.287 409.632 540.05 413.681 536.692 417.601C536.862 410.888 536.88 403.328 536.882 394.786C546.083 382.575 554.017 369.158 560.419 354.527C550.429 353.043 542.176 350.263 535.498 346.369C534.588 339.005 533.02 332.295 530.197 325.914C525.954 316.32 519.865 307.775 512.369 300.721C512.393 291.829 513.786 282.154 516.343 271.923C542.902 277.337 565.642 291.123 572.974 315.907C576.621 299.516 578.57 281.94 578.57 263.173C578.57 260.796 578.537 258.427 578.47 256.069C557.938 260.407 542.999 255.467 532.671 244.02C534.581 241.942 536.347 239.952 537.965 238.034C544.209 230.63 549.103 223.328 551.876 214.74C553.044 211.121 553.9 207.426 554.442 203.697C561.692 206.129 568.305 209.984 573.906 215.522C570.739 199.653 566.005 184.393 559.851 169.896C557.167 171.333 554.547 172.532 551.99 173.501L551.951 173.377C551.926 173.299 551.901 173.221 551.876 173.142C549.103 164.555 544.209 157.252 537.965 149.849C533.142 144.131 527.003 137.777 519.653 130.344C526.902 130.028 534.012 131.116 540.696 133.954C534.119 123.867 526.768 114.315 518.712 105.369C513.965 109.839 509.212 113.028 504.481 115.065L499.526 110.077L499.089 109.638L499.088 109.636L499.087 109.635C489.114 99.5975 481.003 91.4336 473.883 85.3494C472.667 84.3106 471.454 83.3089 470.238 82.3479C476.756 79.6663 483.564 78.3244 490.455 78.7789C476.252 67.4608 460.631 57.669 443.814 49.6407C415.745 63.9308 394.225 52.9594 379.795 24.483C409.807 9.16485 434.809 9.91582 448.71 43.0026C463.517 49.8381 477.513 57.9298 490.532 67.1417C475.627 46.7803 478.808 23.481 495.538 0ZM536.166 429.12C536.203 428.608 536.238 428.09 536.271 427.566C564.823 434.747 587.225 456.812 603.337 490.016C575.552 496.492 550.363 497.003 529.348 488.519L539.684 462.153L534.837 460.218C533.056 459.507 531.269 458.803 529.478 458.107C529.723 457.584 529.963 457.057 530.197 456.528C533.884 448.194 535.431 439.298 536.166 429.12ZM139.736 454.613C134.116 446.128 129.611 436.831 126.431 426.935C96.5874 433.375 73.2796 455.772 56.6628 490.016C84.4476 496.492 109.637 497.003 130.653 488.519L120.316 462.153L125.164 460.218C129.981 458.295 134.836 456.425 139.736 454.613ZM99.5805 354.527C115.408 352.176 126.873 346.573 134.625 338.44C137.243 333.612 140.203 328.998 143.471 324.632C147.734 314.132 148.576 301.439 146.656 287.282C142.511 283.243 138.817 278.738 135.651 273.847C112.613 280.268 93.6089 293.654 87.0263 315.907C83.3792 299.516 81.4296 281.94 81.4296 263.173C81.4296 260.796 81.4633 258.427 81.5304 256.069C100.594 260.097 114.835 256.126 125.042 246.375C124.484 242.938 124.103 239.362 123.832 235.613C123.151 226.189 123.118 214.685 123.116 200.503C108.996 201.221 95.9727 205.756 86.0936 215.522C89.261 199.653 93.9946 184.393 100.149 169.896C108.436 174.335 116.114 176.492 123.203 176.681C123.292 170.412 123.471 164.82 123.832 159.815C124.568 149.636 126.114 140.74 129.801 132.407C130.036 131.876 130.276 131.348 130.522 130.823C126.688 131.388 122.933 132.413 119.304 133.954C125.881 123.867 133.231 114.315 141.288 105.369C142.746 106.743 144.205 107.995 145.664 109.13C152.328 102.399 160.216 96.8955 168.987 92.965C177.267 89.2545 186.105 87.6978 196.218 86.9575C196.958 86.9034 197.71 86.8533 198.476 86.807C189.433 81.2632 179.576 78.1174 169.545 78.7789C183.748 67.4608 199.369 57.669 216.186 49.6407C244.255 63.9308 265.775 52.9594 280.205 24.483C250.192 9.16484 225.191 9.91582 211.29 43.0026C196.482 49.8385 182.486 57.9307 169.466 67.1432C184.373 46.7815 181.191 23.4816 164.461 0C142.034 23.4423 134.531 48.5886 157.493 76.1514C144.416 86.6034 132.486 98.2559 121.898 110.949C126.823 87.9744 116.143 66.6575 93.8516 48.1902C76.7354 79.3645 75.6249 108.279 106.504 131.559C97.3327 145.335 89.6136 160.075 83.5439 175.618C77.901 155.462 61.2988 139.864 36.5213 128.875C28.1985 165.986 35.337 196.335 72.6778 212.237C69.5111 227.495 67.8522 243.322 67.8522 259.596C67.8522 262.57 67.8963 265.517 67.9836 268.437C53.283 250.785 29.7223 241.935 0 240.863C7.43026 282.561 27.7979 310.989 72.8285 312.315C76.6727 331.871 82.6449 349.953 90.397 366.562C65.0124 352.591 34.1882 354.549 0.740871 369.408C30.3158 408.635 66.3041 427.491 113.606 405.454C116.95 409.95 120.444 414.297 124.078 418.495C122.083 410.081 121.026 401.301 121.026 392.272C121.026 392.168 121.027 392.064 121.027 391.96C112.711 380.513 105.493 368.037 99.5805 354.527Z" fill="#005BAC"/>
<path fill-rule="evenodd" clip-rule="evenodd" d="M200.021 256.025C207.656 256.584 217.748 256.607 233.885 256.607C250.022 256.607 260.115 256.584 267.749 256.025C275.014 255.493 277.073 254.625 277.521 254.425C283.182 251.888 287.709 247.331 290.23 241.633C290.429 241.183 291.291 239.11 291.819 231.798C292.374 224.114 292.398 213.955 292.398 197.713C292.398 181.472 292.374 171.313 291.819 163.629C291.291 156.317 290.429 154.244 290.23 153.794C287.709 148.096 283.182 143.539 277.521 141.002C277.073 140.802 275.014 139.934 267.749 139.402C260.115 138.843 250.022 138.82 233.885 138.82C217.748 138.82 207.656 138.843 200.021 139.402C192.757 139.934 190.697 140.802 190.25 141.002C184.589 143.539 180.061 148.096 177.541 153.794C177.342 154.244 176.48 156.317 175.951 163.629C175.396 171.313 175.373 181.472 175.373 197.713C175.373 213.955 175.396 224.114 175.951 231.798C176.48 239.11 177.342 241.183 177.541 241.633C180.061 247.331 184.589 251.888 190.25 254.425C190.697 254.625 192.757 255.493 200.021 256.025ZM143.178 138.395C137.758 150.648 137.758 166.336 137.758 197.713C137.758 229.091 137.758 244.779 143.178 257.032C149.479 271.277 160.798 282.669 174.951 289.012C187.124 294.467 202.711 294.467 233.885 294.467C265.059 294.467 280.646 294.467 292.82 289.012C306.973 282.669 318.291 271.277 324.593 257.032C330.013 244.779 330.013 229.091 330.013 197.713C330.013 166.336 330.013 150.648 324.593 138.395C318.291 124.15 306.973 112.758 292.82 106.415C280.646 100.96 265.059 100.96 233.885 100.96C202.711 100.96 187.124 100.96 174.951 106.415C160.798 112.758 149.479 124.15 143.178 138.395Z" fill="#005BAC"/>
<path fill-rule="evenodd" clip-rule="evenodd" d="M397.58 147.259L393.868 150.995C383.085 161.848 376.618 168.399 372.186 173.653C369.183 177.213 368.296 178.845 368.114 179.23C367.187 182.147 367.187 185.283 368.114 188.2C368.296 188.585 369.184 190.216 372.186 193.776C376.618 199.03 383.085 205.581 393.868 216.435L407.74 230.397C418.523 241.251 425.032 247.76 430.252 252.22C433.789 255.243 435.41 256.136 435.793 256.319C438.691 257.252 441.806 257.252 444.704 256.319C445.087 256.136 446.708 255.242 450.245 252.22C455.465 247.76 461.973 241.251 472.757 230.397L476.468 226.662C487.252 215.808 493.719 209.257 498.15 204.003C501.153 200.443 502.04 198.811 502.222 198.426C503.149 195.509 503.149 192.374 502.222 189.457C502.04 189.071 501.153 187.44 498.15 183.88C493.719 178.626 487.252 172.075 476.468 161.221L462.597 147.259C451.813 136.405 445.304 129.896 440.084 125.436C436.548 122.414 434.926 121.521 434.544 121.337C431.646 120.404 428.53 120.404 425.632 121.337C425.25 121.521 423.629 122.414 420.092 125.436C414.872 129.896 408.363 136.405 397.58 147.259ZM425.724 121.298C425.723 121.3 425.695 121.313 425.644 121.332C425.699 121.306 425.724 121.296 425.724 121.298ZM434.453 121.298C434.452 121.296 434.478 121.306 434.532 121.332C434.481 121.313 434.453 121.3 434.453 121.298ZM502.261 189.548C502.26 189.548 502.247 189.52 502.228 189.468C502.254 189.523 502.263 189.549 502.261 189.548ZM502.261 198.334C502.263 198.333 502.254 198.359 502.228 198.415C502.247 198.363 502.26 198.335 502.261 198.334ZM444.613 256.358C444.614 256.356 444.641 256.343 444.693 256.324C444.638 256.35 444.612 256.36 444.613 256.358ZM435.884 256.358C435.885 256.36 435.859 256.35 435.804 256.324C435.856 256.343 435.883 256.356 435.884 256.358ZM368.075 188.108C368.077 188.109 368.09 188.136 368.109 188.188C368.083 188.133 368.073 188.107 368.075 188.108ZM368.075 179.322C368.073 179.323 368.083 179.297 368.109 179.241C368.09 179.293 368.077 179.321 368.075 179.322ZM332.361 199.964C336.237 211.97 346.581 222.382 367.27 243.206L381.142 257.168C401.831 277.992 412.176 288.404 424.104 292.305C434.597 295.737 445.9 295.737 456.392 292.305C468.321 288.404 478.666 277.992 499.355 257.168L503.066 253.433C523.755 232.609 534.1 222.197 537.976 210.191C541.385 199.629 541.385 188.253 537.976 177.692C534.1 165.686 523.755 155.274 503.066 134.45L489.194 120.488C468.505 99.6642 458.161 89.2522 446.232 85.3511C435.739 81.9196 424.437 81.9196 413.944 85.3511C402.015 89.2522 391.671 99.6641 370.982 120.488L367.27 124.223C346.581 145.047 336.237 155.459 332.361 167.466C328.952 178.027 328.952 189.403 332.361 199.964Z" fill="#005BAC"/>
<path fill-rule="evenodd" clip-rule="evenodd" d="M75.75 534.296C94.4202 523.946 114.842 514.264 137.309 505.52L154.667 549.797C155.414 551.702 157.192 552.997 159.224 553.116C176.56 554.129 193.035 556.673 208.8 560.244C170.088 571.258 138.049 584.993 111.039 600C113.589 584.662 116.342 573.698 121.726 556.67L123.115 552.275L118.968 550.315C100.84 541.748 89.441 537.706 75.75 534.296ZM221.361 530.334L216.105 551.157C202.801 547.94 188.966 545.399 174.521 543.84C188.859 538.764 204.413 534.191 221.361 530.334ZM227.443 518.249C202.733 523.396 180.78 530.034 161.113 537.586L133.863 468.079C189.262 446.505 249.944 432.236 329.992 432.236C410.039 432.236 470.721 446.505 526.12 468.079L498.871 537.586C479.203 530.034 457.25 523.396 432.54 518.249C431.442 518.021 430.339 517.795 429.23 517.572C396.349 510.967 364.136 506.975 329.992 506.975C295.847 506.975 263.634 510.967 230.754 517.572C229.645 517.795 228.541 518.021 227.443 518.249ZM438.622 530.334C455.571 534.191 471.124 538.764 485.462 543.84C471.017 545.399 457.182 547.94 443.878 551.157L438.622 530.334ZM548.944 600C521.934 584.993 489.895 571.258 451.184 560.244C466.948 556.673 483.423 554.129 500.759 553.116C502.791 552.997 504.569 551.702 505.316 549.797L506.682 546.313L522.674 505.52C545.141 514.264 565.563 523.946 584.233 534.296C570.542 537.706 559.143 541.748 541.016 550.315L536.868 552.275L538.258 556.67C543.641 573.698 546.395 584.662 548.944 600Z" fill="#005BAC"/>
<path fill-rule="evenodd" clip-rule="evenodd" d="M193.99 437.709C181.311 426.716 173.283 410.437 173.283 392.272C173.283 359.165 199.948 332.327 232.84 332.327C265.733 332.327 292.397 359.165 292.397 392.272C292.397 403.661 289.242 414.309 283.762 423.377C297.116 422.39 311.011 421.829 325.526 421.733C328.441 412.436 330.013 402.539 330.013 392.272C330.013 338.256 286.507 294.467 232.84 294.467C179.174 294.467 135.668 338.256 135.668 392.272C135.668 413.654 142.485 433.434 154.051 449.529C166.95 445.15 180.213 441.184 193.99 437.709Z" fill="#005BAC"/>
<path fill-rule="evenodd" clip-rule="evenodd" d="M368.057 422.832C367.653 415.45 367.635 405.779 367.635 391.22C367.635 374.978 367.658 364.82 368.213 357.136C368.741 349.824 369.603 347.751 369.803 347.301C372.323 341.603 376.851 337.046 382.512 334.509C382.959 334.309 385.018 333.441 392.283 332.909C399.917 332.35 410.01 332.327 426.147 332.327C442.284 332.327 452.377 332.35 460.011 332.909C467.276 333.441 469.335 334.309 469.782 334.509C475.443 337.046 479.971 341.603 482.491 347.301C482.69 347.751 483.553 349.824 484.081 357.136C484.636 364.82 484.659 374.978 484.659 391.22C484.659 407.462 484.636 417.621 484.081 425.305C483.553 432.617 482.69 434.689 482.491 435.14C481.529 437.314 480.275 439.323 478.777 441.116C491.464 444.672 503.737 448.641 515.722 452.96C516.116 452.162 516.493 451.355 516.854 450.539C522.274 438.286 522.274 422.597 522.274 391.22C522.274 359.843 522.274 344.155 516.854 331.902C510.553 317.657 499.235 306.264 485.082 299.922C472.908 294.467 457.321 294.467 426.147 294.467C394.973 294.467 379.386 294.467 367.212 299.922C353.059 306.264 341.741 317.657 335.439 331.902C330.02 344.155 330.02 359.843 330.02 391.22C330.02 403.567 330.02 413.484 330.35 421.719C343.4 421.726 355.95 422.107 368.057 422.832Z" fill="#005BAC"/>
<path d="M2712 462H2652C2616 462 2598 442 2598 402V318C2598 278 2616 258 2652 258H2712C2748 258 2766 278 2766 318V402C2766 442 2748 462 2712 462ZM2706 402V318C2706 298 2698 288 2682 288C2666 288 2658 298 2658 318V402C2658 422 2666 432 2682 432C2698 432 2706 422 2706 402Z" fill="#005BAC"/>
<path d="M2506 258H2566V462H2506V258ZM2536 138L2574 176L2536 214L2498 176L2536 138Z" fill="#005BAC"/>
<path d="M2390 174V144H2474V462H2414V174H2390Z" fill="#005BAC"/>
<path d="M2328 462H2268C2232 462 2214 442 2214 402V318C2214 278 2232 258 2268 258H2328C2364 258 2382 278 2382 318V402C2382 442 2364 462 2328 462ZM2322 402V318C2322 298 2314 288 2298 288C2282 288 2274 298 2274 318V402C2274 422 2282 432 2298 432C2314 432 2322 422 2322 402Z" fill="#005BAC"/>
<path d="M2058 462V288H2038V258H2058V204C2058 164 2076 144 2112 144H2202V174H2142C2126 174 2118 184 2118 204V258H2202V288H2118V462H2058Z" fill="#005BAC"/>
<path d="M1870 168H1930V258H2014V288H1930V402C1930 422 1938 432 1954 432H2014V462H1924C1888 462 1870 442 1870 402V288H1850V258H1870V168Z" fill="#005BAC"/>
<path d="M1826 258V288H1778C1754 288 1742 298 1742 318V462H1682V318C1682 278 1700 258 1736 258H1826Z" fill="#005BAC"/>
<path d="M1596 462H1536C1500 462 1482 442 1482 402V318C1482 278 1500 258 1536 258H1596C1632 258 1650 278 1650 318V402C1650 442 1632 462 1596 462ZM1590 402V318C1590 298 1582 288 1566 288C1550 288 1542 298 1542 318V402C1542 422 1550 432 1566 432C1582 432 1590 422 1590 402Z" fill="#005BAC"/>
<path d="M1416 138C1452 138 1470 158 1470 198V252C1470 292 1452 312 1416 312H1338V462H1278V138H1416ZM1386 282C1402 282 1410 272 1410 252V198C1410 178 1402 168 1386 168H1338V282H1386Z" fill="#005BAC"/>
<path d="M1132 462C1096 462 1078 442 1078 402V390C1078 350 1096 330 1132 330H1186V318C1186 298 1174 288 1150 288H1086V258H1192C1228 258 1246 278 1246 318V462H1132ZM1162 360C1146 360 1138 370 1138 390V402C1138 422 1146 432 1162 432H1186V360H1162Z" fill="#005BAC"/>
<path d="M1062 258V288H1014C990 288 978 298 978 318V462H918V318C918 278 936 258 972 258H1062Z" fill="#005BAC"/>
<path d="M750 168H810V258H894V288H810V402C810 422 818 432 834 432H894V462H804C768 462 750 442 750 402V288H726V258H750V168Z" fill="#005BAC"/>
</svg>
